<svg width="119" height="128" viewBox="0 0 119 128" fill="none" xmlns="http://www.w3.org/2000/svg">
<path d="M53.0204 76.2107V120.711C53.0204 132.711 45.5635 122.837 39.5204 120.711C26.0204 112.711 0.0204005 101.5 0.0204005 98.5V45.2107C0.0204065 39.3305 -0.979493 31.7107 11.0205 24.7107C30.0204 13.6273 45.0204 5.21069 45.0204 5.21069C45.0204 5.21069 53.5 0 56 0C58.5 0 79.5 5.21069 79.5 5.21069L98.5 10C98.5 10 113 12.5 106 17.5C99 22.5 88.5 29 88.5 29L60.5 45.2107C56.4338 46.1013 55.1236 44.924 50.5204 43.7107C38.0409 40.4214 18.5204 33.7107 18.5204 33.7107C18.5204 33.7107 15.0205 33.2107 11.0205 36.2107C7.02045 39.2107 9.52041 42.2107 9.52041 42.2107C9.52041 42.2107 36.5204 57.7107 44.0204 62.2107C51.5204 66.7107 53.0204 65.7107 53.0204 76.2107Z" fill="url(#paint0_linear)"/>
<path d="M67 65.5C73 62 75 61 75 61C75 61 97.4999 47.5 102.5 45C107.5 42.5 102.5 39.5 102.5 39.5C102.5 39.5 99.343 37.6724 95.4999 35C93.5969 33.6767 91.5064 32.6624 92.4999 32C94.3375 30.7749 97.5 28.5 97.5 28.5C97.5 28.5 100.919 26 101.5 26C102.331 26 106.501 29.3692 110.5 32C113.717 34.1166 117.5 36 117.5 38.5L117.5 46.5C117.5 46.5 118 81.5 118 88C118 94.5 119 97 114.5 99.5L110 102L90.9999 113.5L71.9999 125C71.9999 125 64.4999 131.5 64.5 123L64.5 119V80.5C64.5 80.5 64.5788 75.4421 64.5 72C64.426 68.767 64.094 67.1952 67 65.5Z" fill="url(#paint1_linear)"/>
<defs>
<linearGradient id="paint0_linear" x1="118" y1="67.5" x2="-1.50001" y2="66" gradientUnits="userSpaceOnUse">
<stop offset="0.248556" stop-color="#467D72"/>
<stop offset="1" stop-color="#91E6BB"/>
</linearGradient>
<linearGradient id="paint1_linear" x1="84" y1="70.5" x2="118" y2="69.5" gradientUnits="userSpaceOnUse">
<stop stop-color="#65A890"/>
<stop offset="1" stop-color="#467D72"/>
</linearGradient>
</defs>
</svg>
